<?xml version="1.0" encoding="UTF-8"?>
<svg
   xmlns:ns1="http://www.w3.org/1999/02/22-rdf-syntax-ns#"
   xmlns:xlink="http://www.w3.org/1999/xlink"
   xmlns:sodipodi="http://sodipodi.sourceforge.net/DTD/sodipodi-0.dtd"
   xmlns:inkscape="http://www.inkscape.org/namespaces/inkscape"
   xmlns:rdf="http://www.w3.org/1999/02/22-rdf-syntax-ns#"
   xmlns:dc="http://purl.org/dc/elements/1.1/"
   xmlns:cc="http://creativecommons.org/ns#"
   viewBox="0 0 900 600"
   xmlns="http://www.w3.org/2000/svg"
   fill="#DE2910"
   width="900"
   height="600">
  <title>Flag of Hong Kong (香港)</title>
  <desc>ISO 3166-1: HK | Ratio: 2:3 | De jure (Regional Flag and Regional Emblem Ordinance)</desc>
  <metadata>
    <rdf:RDF xmlns:rdf="http://www.w3.org/1999/02/22-rdf-syntax-ns#"
             xmlns:dc="http://purl.org/dc/elements/1.1/">
      <rdf:Description>
        <dc:title>Flag of Hong Kong (香港)</dc:title>
        <dc:creator>国旗仕様検証プロジェクト (Flag Specification Verification Project)</dc:creator>
        <dc:rights>Colors verified from official government/vexillological sources. SVG geometry from Wikimedia Commons (various authors, mostly public domain).</dc:rights>
        <dc:format>image/svg+xml</dc:format>
        <dc:identifier>HK</dc:identifier>
      </rdf:Description>
    </rdf:RDF>
  </metadata>
<path d="M0 0h900v600H0z"/>
<g id="a">
<path d="M492.936022 125.19583a27.917245 27.917245 0 0 0-14.901582 41.791893 45.171052 45.171052 0 0 1-20.289932 66.204239 38.650583 38.650583 0 0 0-10.816469 64.313021 68.374981 68.374981 0 0 1-17.067835-93.913589 15.809868 15.809868 0 0 1-1.109109-1.047777 69.880683 69.880683 0 0 0 16.754434 95.793146 90.342104 90.342104 0 0 1 47.430493-173.140933" fill="#fff"/>
<path d="M451.979333 181.099409l-27.564739 12.021638 29.366483 6.476437-19.951229-22.500734 2.915284 29.930515"/>
</g>
<g id="b">
<use xlink:href="#a" transform="rotate(72 450 300)"/>
<use xlink:href="#a" transform="rotate(216 450 300)"/>
</g>
<use xlink:href="#b" transform="rotate(72 450 300)"/>
</svg>