<?xml version="1.0" encoding="UTF-8"?>
<svg
   xmlns:ns1="http://www.w3.org/1999/02/22-rdf-syntax-ns#"
   xmlns:xlink="http://www.w3.org/1999/xlink"
   xmlns:sodipodi="http://sodipodi.sourceforge.net/DTD/sodipodi-0.dtd"
   xmlns:inkscape="http://www.inkscape.org/namespaces/inkscape"
   xmlns:rdf="http://www.w3.org/1999/02/22-rdf-syntax-ns#"
   xmlns:dc="http://purl.org/dc/elements/1.1/"
   xmlns:cc="http://creativecommons.org/ns#"
   xmlns="http://www.w3.org/2000/svg"
   viewBox="-120 -80 240 160"
   xmlns:v="https://vecta.io/nano"
   width="900"
   height="600">
  <title>Flag of Kenya (ケニア)</title>
  <desc>ISO 3166-1: KE | Ratio: 2:3 | De facto (Standard Vexillological Approximations)</desc>
  <metadata>
    <rdf:RDF xmlns:rdf="http://www.w3.org/1999/02/22-rdf-syntax-ns#"
             xmlns:dc="http://purl.org/dc/elements/1.1/">
      <rdf:Description>
        <dc:title>Flag of Kenya (ケニア)</dc:title>
        <dc:creator>国旗仕様検証プロジェクト (Flag Specification Verification Project)</dc:creator>
        <dc:rights>Colors verified from official government/vexillological sources. SVG geometry from Wikimedia Commons (various authors, mostly public domain).</dc:rights>
        <dc:format>image/svg+xml</dc:format>
        <dc:identifier>KE</dc:identifier>
      </rdf:Description>
    </rdf:RDF>
  </metadata><defs><path id="A" stroke-miterlimit="10" d="M-1 55.426h2V-38c2-2 2-5 2-8 0-2 0-10-3-18.663C-3-56-3-48-3-46c0 3 0 6 2 8z" transform="rotate(30)"/></defs><path fill="#fff" d="M-120-80h240V80h-240z"/><path d="M-120-80h240v48h-240z"/><path fill="#060" d="M-120 32h240v48h-240z"/><g id="B"><use xlink:href="#A" stroke="#000"/><use xlink:href="#A" fill="#fff"/></g><use xlink:href="#B" transform="scale(-1 1)"/><path fill="#b00" d="M-120-24v48h101c3 8 13 24 19 24s16-16 19-24h101v-48H19C16-32 6-48 0-48s-16 16-19 24z"/><path id="C" d="M19 24c3-8 5-16 5-24s-2-16-5-24c-3 8-5 16-5 24s2 16 5 24"/><use xlink:href="#C" transform="scale(-1 1)"/><g fill="#fff"><ellipse rx="4" ry="6"/><path id="D" d="M1 5.85s4 8 4 21-4 21-4 21z"/><use xlink:href="#D" transform="scale(-1)"/><use xlink:href="#D" transform="scale(-1 1)"/><use xlink:href="#D" transform="scale(1 -1)"/></g></svg>