<?xml version="1.0" encoding="UTF-8"?>
<svg
   xmlns:ns1="http://www.w3.org/1999/02/22-rdf-syntax-ns#"
   xmlns:xlink="http://www.w3.org/1999/xlink"
   xmlns:sodipodi="http://sodipodi.sourceforge.net/DTD/sodipodi-0.dtd"
   xmlns:inkscape="http://www.inkscape.org/namespaces/inkscape"
   xmlns:rdf="http://www.w3.org/1999/02/22-rdf-syntax-ns#"
   xmlns:dc="http://purl.org/dc/elements/1.1/"
   xmlns:cc="http://creativecommons.org/ns#"
   xmlns="http://www.w3.org/2000/svg"
   viewBox="0 0 475 250"
   fill="#fff"
   width="900"
   height="474">
  <title>Flag of Marshall Islands (マーシャル諸島)</title>
  <desc>ISO 3166-1: MH | Ratio: 10:19 | De facto (Standard Vexillological Approximations / Vexilla Mundi)</desc>
  <metadata>
    <rdf:RDF xmlns:rdf="http://www.w3.org/1999/02/22-rdf-syntax-ns#"
             xmlns:dc="http://purl.org/dc/elements/1.1/">
      <rdf:Description>
        <dc:title>Flag of Marshall Islands (マーシャル諸島)</dc:title>
        <dc:creator>国旗仕様検証プロジェクト (Flag Specification Verification Project)</dc:creator>
        <dc:rights>Colors verified from official government/vexillological sources. SVG geometry from Wikimedia Commons (various authors, mostly public domain).</dc:rights>
        <dc:format>image/svg+xml</dc:format>
        <dc:identifier>MH</dc:identifier>
      </rdf:Description>
    </rdf:RDF>
  </metadata>
	<path d="m0 0h475v250H0z"/>
	<path fill="#E57200" d="m0 242V0h475v53z"/>
	<path fill="#003087" d="m0 238V0h475v4zm0 8v4h475V102z"/>
	<path transform="scale(0.01)" d="m9128 1378 320 5321 1116-2932-499 3097 1838-2543-1284 2863 2433-1981-1980 2433 2862-1283-2543 1837 3098-499-2932 1117 5321 320-5321 320 2932 1116-3098-499 2543 1838-2862-1284 1980 2433-2433-1980 1284 2862-1838-2543 499 3098-1116-2932-320 5321-320-5321-1117 2932 499-3098-1837 2543 1283-2862-2433 1980 1981-2433-2863 1284 2543-1838-3097 499 2932-1116-5321-320 5321-320-2932-1117 3097 499-2543-1837 2863 1283-1981-2433 2433 1981-1283-2863 1837 2543-499-3097 1117 2932z"/>
</svg>