<?xml version="1.0" encoding="UTF-8"?>
<svg
   xmlns:ns1="http://www.w3.org/1999/02/22-rdf-syntax-ns#"
   xmlns:xlink="http://www.w3.org/1999/xlink"
   xmlns:sodipodi="http://sodipodi.sourceforge.net/DTD/sodipodi-0.dtd"
   xmlns:inkscape="http://www.inkscape.org/namespaces/inkscape"
   xmlns:rdf="http://www.w3.org/1999/02/22-rdf-syntax-ns#"
   xmlns:dc="http://purl.org/dc/elements/1.1/"
   xmlns:cc="http://creativecommons.org/ns#"
   viewBox="0 0 600 300"
   xmlns="http://www.w3.org/2000/svg"
   width="900"
   height="450">
  <title>Flag of Nauru (ナウル)</title>
  <desc>ISO 3166-1: NR | Ratio: 1:2 | De facto (Album des Pavillons / Standard Vexillological Approximations)</desc>
  <metadata>
    <rdf:RDF xmlns:rdf="http://www.w3.org/1999/02/22-rdf-syntax-ns#"
             xmlns:dc="http://purl.org/dc/elements/1.1/">
      <rdf:Description>
        <dc:title>Flag of Nauru (ナウル)</dc:title>
        <dc:creator>国旗仕様検証プロジェクト (Flag Specification Verification Project)</dc:creator>
        <dc:rights>Colors verified from official government/vexillological sources. SVG geometry from Wikimedia Commons (various authors, mostly public domain).</dc:rights>
        <dc:format>image/svg+xml</dc:format>
        <dc:identifier>NR</dc:identifier>
      </rdf:Description>
    </rdf:RDF>
  </metadata>
  <path fill="#012169" style="fill:#012169;fill-opacity:1" d="M0 0h600v300H0z"/>
  <path fill="#FFC72C" style="fill:#ffc72c;fill-opacity:1" d="M0 137.5h600v25H0z"/>
  <path fill="#fff" d="m150 262.5-6.4705-25.8519L125 255.8012l7.3223-25.6235-25.6236 7.3223 19.1532-18.5295L100 212.5l25.8519-6.4705L106.6987 187.5l25.6236 7.3223L125 169.1988l18.5295 19.1531L150 162.5l6.4705 25.8519L175 169.1988l-7.3223 25.6235 25.6236-7.3223-19.1532 18.5295L200 212.5l-25.8519 6.4705L193.3013 237.5l-25.6236-7.3223L175 255.8012l-18.5295-19.1531L150 262.5z"/>
</svg>