<?xml version="1.0" encoding="UTF-8"?>
<svg
   xmlns:ns1="http://www.w3.org/1999/02/22-rdf-syntax-ns#"
   xmlns:xlink="http://www.w3.org/1999/xlink"
   xmlns:sodipodi="http://sodipodi.sourceforge.net/DTD/sodipodi-0.dtd"
   xmlns:inkscape="http://www.inkscape.org/namespaces/inkscape"
   xmlns:rdf="http://www.w3.org/1999/02/22-rdf-syntax-ns#"
   xmlns:dc="http://purl.org/dc/elements/1.1/"
   xmlns:cc="http://creativecommons.org/ns#"
   xmlns="http://www.w3.org/2000/svg"
   viewBox="-28 -45 180 90"
    preserveAspectRatio="none"
   fill="#FED141"
   width="900"
   height="450">
  <title>Flag of Philippines (フィリピン)</title>
  <desc>ISO 3166-1: PH | Ratio: 1:2 | De jure (Republic Act No. 8491 / Flag and Heraldic Code of the Philippines)</desc>
  <metadata>
    <rdf:RDF xmlns:rdf="http://www.w3.org/1999/02/22-rdf-syntax-ns#"
             xmlns:dc="http://purl.org/dc/elements/1.1/">
      <rdf:Description>
        <dc:title>Flag of Philippines (フィリピン)</dc:title>
        <dc:creator>国旗仕様検証プロジェクト (Flag Specification Verification Project)</dc:creator>
        <dc:rights>Colors verified from official government/vexillological sources. SVG geometry from Wikimedia Commons (various authors, mostly public domain).</dc:rights>
        <dc:format>image/svg+xml</dc:format>
        <dc:identifier>PH</dc:identifier>
      </rdf:Description>
    </rdf:RDF>
  </metadata>
	<path fill="#0032A0" d="m-28-45h180V0L0 44z"/>
	<path fill="#BF0D3E" d="m0 0h152v45H-28z"/>
	<path fill="#fff" d="m49.942 0L-28 45v-90z"/>
	<circle r="9"/>
	<g id="c">
		<g id="b">
			<path id="a" d="m0 0-3.164-15.909.945-.946zl-1.169-17.831L0-19l1.169 1.169zl2.219-16.855.945.946z"/>
			<use transform="scale(-1)" xlink:href="#a"/>
		</g>
		<use transform="rotate(90)" xlink:href="#b"/>
	</g>
	<use transform="rotate(45)" xlink:href="#c"/>
	<path id="s" d="m40.942 0-3.382 1.176L37.487 4.755l-2.163-2.853-3.427 1.037L33.942 0l-2.045-2.939 3.427 1.037 2.163-2.853L37.56-1.176z"/>
	<use transform="rotate(120,-2.019,0)" xlink:href="#s"/>
	<use transform="rotate(240,-2.019,0)" xlink:href="#s"/>
</svg>