<?xml version="1.0" encoding="UTF-8"?>
<svg
   xmlns:ns1="http://www.w3.org/1999/02/22-rdf-syntax-ns#"
   xmlns:xlink="http://www.w3.org/1999/xlink"
   xmlns:sodipodi="http://sodipodi.sourceforge.net/DTD/sodipodi-0.dtd"
   xmlns:inkscape="http://www.inkscape.org/namespaces/inkscape"
   xmlns:rdf="http://www.w3.org/1999/02/22-rdf-syntax-ns#"
   xmlns:dc="http://purl.org/dc/elements/1.1/"
   xmlns:cc="http://creativecommons.org/ns#"
   xmlns="http://www.w3.org/2000/svg"
   viewBox="0 0 1560 1040"
   width="900"
   height="600">
  <title>Flag of Rwanda (ルワンダ)</title>
  <desc>ISO 3166-1: RW | Ratio: 2:3 | De jure (Law No. 34/2008 of 08/08/2008 — design and proportions)</desc>
  <metadata>
    <rdf:RDF xmlns:rdf="http://www.w3.org/1999/02/22-rdf-syntax-ns#"
             xmlns:dc="http://purl.org/dc/elements/1.1/">
      <rdf:Description>
        <dc:title>Flag of Rwanda (ルワンダ)</dc:title>
        <dc:creator>国旗仕様検証プロジェクト (Flag Specification Verification Project)</dc:creator>
        <dc:rights>Colors verified from official government/vexillological sources. SVG geometry from Wikimedia Commons (various authors, mostly public domain).</dc:rights>
        <dc:format>image/svg+xml</dc:format>
        <dc:identifier>RW</dc:identifier>
      </rdf:Description>
    </rdf:RDF>
  </metadata>
	<path fill="#fad201" d="m0 0h1560v1040H0z"/>
	<path fill="#00A1DE" d="m0 0h1560v520H0z"/>
	<path fill="#20603d" d="m0 780h1560v260H0z"/>
	<g transform="translate(1280,272)">
		<path fill="#e5be01" d="m0-168L6.79-51.56l36.69-110.72L19.9-48.04 84-145.49 31.66-41.25l87.13-77.54-77.54 87.13L145.49-84 48.04-19.9l114.24-23.58L51.56-6.79 168 0 51.56 6.79l110.72 36.69L48.04 19.9 145.49 84 41.25 31.66l77.54 87.13-87.13-77.54L84 145.49 19.9 48.04l23.58 114.24L6.79 51.56 0 168-6.79 51.56-43.48 162.28-19.9 48.04-84 145.49-31.66 41.25l-87.13 77.54 77.54-87.13L-145.49 84l97.45-64.1-114.24 23.58L-51.56 6.79-168 0-51.56-6.79-162.28-43.48-48.04-19.9-145.49-84-41.25-31.66l-77.54-87.13 87.13 77.54L-84-145.49l64.1 97.45-23.58-114.24L-6.79-51.56z"/>
		<circle fill="none" stroke="#00A1DE" r="49" stroke-width="6"/>
	</g>
</svg>