<?xml version="1.0" encoding="UTF-8"?>
<svg
   xmlns:ns1="http://www.w3.org/1999/02/22-rdf-syntax-ns#"
   xmlns:xlink="http://www.w3.org/1999/xlink"
   xmlns:sodipodi="http://sodipodi.sourceforge.net/DTD/sodipodi-0.dtd"
   xmlns:inkscape="http://www.inkscape.org/namespaces/inkscape"
   xmlns:rdf="http://www.w3.org/1999/02/22-rdf-syntax-ns#"
   xmlns:dc="http://purl.org/dc/elements/1.1/"
   xmlns:cc="http://creativecommons.org/ns#"
   viewBox="0 0 1000 500"
   xmlns="http://www.w3.org/2000/svg"
   width="900"
   height="450">
  <title>Flag of Uzbekistan (ウズベキスタン)</title>
  <desc>ISO 3166-1: UZ | Ratio: 1:2 | De facto (Standard Vexillological Approximations)</desc>
  <metadata>
    <rdf:RDF xmlns:rdf="http://www.w3.org/1999/02/22-rdf-syntax-ns#"
             xmlns:dc="http://purl.org/dc/elements/1.1/">
      <rdf:Description>
        <dc:title>Flag of Uzbekistan (ウズベキスタン)</dc:title>
        <dc:creator>国旗仕様検証プロジェクト (Flag Specification Verification Project)</dc:creator>
        <dc:rights>Colors verified from official government/vexillological sources. SVG geometry from Wikimedia Commons (various authors, mostly public domain).</dc:rights>
        <dc:format>image/svg+xml</dc:format>
        <dc:identifier>UZ</dc:identifier>
      </rdf:Description>
    </rdf:RDF>
  </metadata>
<path fill="#43B02A" d="M0 0h1000v500H0z"/>
<path fill="#0072CE" d="M0 0h1000v250H0z"/>
<path fill="#DA291C" d="M0 160h1000v180H0z"/>
<path fill="#fff" d="M0 170h1000v160H0z"/>
<circle cx="140" cy="80" r="60" fill="#fff"/>
<circle cx="160" cy="80" r="60" fill="#0072CE"/>
<g transform="matrix(2 0 0 2 272 128)" fill="#fff">
<g id="e">
<g id="d">
<g id="c">
<g id="b">
<path id="a" d="M0-6v6h3" transform="rotate(18 0 -6)"/>
<use xlink:href="#a" transform="scale(-1 1)" width="100%" height="100%"/>
</g>
<use xlink:href="#b" transform="rotate(72)" width="100%" height="100%"/>
</g>
<use xlink:href="#b" transform="rotate(-72)" width="100%" height="100%"/>
<use xlink:href="#c" transform="rotate(144)" width="100%" height="100%"/>
</g>
<use xlink:href="#d" y="-24" width="100%" height="100%"/>
<use xlink:href="#d" y="-48" width="100%" height="100%"/>
</g>
<use xlink:href="#e" x="24" width="100%" height="100%"/>
<use xlink:href="#e" x="48" width="100%" height="100%"/>
<use xlink:href="#d" x="-48" width="100%" height="100%"/>
<use xlink:href="#d" x="-24" width="100%" height="100%"/>
<use xlink:href="#d" x="-24" y="-24" width="100%" height="100%"/>
</g>
</svg>