<?xml version="1.0" encoding="UTF-8"?>
<svg
   xmlns:ns1="http://www.w3.org/1999/02/22-rdf-syntax-ns#"
   xmlns:xlink="http://www.w3.org/1999/xlink"
   xmlns:sodipodi="http://sodipodi.sourceforge.net/DTD/sodipodi-0.dtd"
   xmlns:inkscape="http://www.inkscape.org/namespaces/inkscape"
   xmlns:rdf="http://www.w3.org/1999/02/22-rdf-syntax-ns#"
   xmlns:dc="http://purl.org/dc/elements/1.1/"
   xmlns:cc="http://creativecommons.org/ns#"
   xmlns="http://www.w3.org/2000/svg"
   viewBox="-72 -48 144 96"
   width="900"
   height="600">
  <title>Flag of South Korea (韓国)</title>
  <desc>ISO 3166-1: KR | Ratio: 2:3 | De jure (Act on the National Flag / KS A 0003 / Munsell-CIE System)</desc>
  <metadata>
    <rdf:RDF xmlns:rdf="http://www.w3.org/1999/02/22-rdf-syntax-ns#"
             xmlns:dc="http://purl.org/dc/elements/1.1/">
      <rdf:Description>
        <dc:title>Flag of South Korea (韓国)</dc:title>
        <dc:creator>国旗仕様検証プロジェクト (Flag Specification Verification Project)</dc:creator>
        <dc:rights>Colors verified from official government/vexillological sources. SVG geometry from Wikimedia Commons (various authors, mostly public domain).</dc:rights>
        <dc:format>image/svg+xml</dc:format>
        <dc:identifier>KR</dc:identifier>
      </rdf:Description>
    </rdf:RDF>
  </metadata><path fill="#fff" d="M-72-48v96H72v-96z"/><g stroke="#000" stroke-width="4"><path transform="rotate(33.69006752598)" d="M-50-12v24m6 0v-24m6 0v24m76 0V1m0-2v-11m6 0v11m0 2v11m6 0V1m0-2v-11"/><path transform="rotate(-33.69006752598)" d="M-50-12v24m6 0V1m0-2v-11m6 0v24m76 0V1m0-2v-11m6 0v24m6 0V1m0-2v-11"/></g><g transform="rotate(33.69006752598)"><path fill="#cd2e3a" d="M12 0a18 18 0 11-36 0 24 24 0 1148 0"/><path fill="#0F64CD" d="M0 0a12 12 0 1124 0 24 24 0 11-48 0 12 12 0 1024 0"/></g></svg>