<?xml version="1.0" encoding="UTF-8"?>
<svg
   xmlns:ns1="http://www.w3.org/1999/02/22-rdf-syntax-ns#"
   xmlns:xlink="http://www.w3.org/1999/xlink"
   xmlns:sodipodi="http://sodipodi.sourceforge.net/DTD/sodipodi-0.dtd"
   xmlns:inkscape="http://www.inkscape.org/namespaces/inkscape"
   xmlns:rdf="http://www.w3.org/1999/02/22-rdf-syntax-ns#"
   xmlns:dc="http://purl.org/dc/elements/1.1/"
   xmlns:cc="http://creativecommons.org/ns#"
   xmlns="http://www.w3.org/2000/svg"
   viewBox="-1440 -960 2880 1920"
   width="900"
   height="600">
  <title>Flag of Macao (マカオ)</title>
  <desc>ISO 3166-1: MO | Ratio: 2:3 | De jure (GB 17654-1999 / National Standard of the PRC)</desc>
  <metadata>
    <rdf:RDF xmlns:rdf="http://www.w3.org/1999/02/22-rdf-syntax-ns#"
             xmlns:dc="http://purl.org/dc/elements/1.1/">
      <rdf:Description>
        <dc:title>Flag of Macao (マカオ)</dc:title>
        <dc:creator>国旗仕様検証プロジェクト (Flag Specification Verification Project)</dc:creator>
        <dc:rights>Colors verified from official government/vexillological sources. SVG geometry from Wikimedia Commons (various authors, mostly public domain).</dc:rights>
        <dc:format>image/svg+xml</dc:format>
        <dc:identifier>MO</dc:identifier>
      </rdf:Description>
    </rdf:RDF>
  </metadata>
<defs>
<clipPath id="b">
<path d="M-224 0h448v400h-448z"/>
</clipPath>
<clipPath id="o4">
<circle cx="-158" cy="-149" r="324.5"/>
</clipPath>
<clipPath id="o3">
<circle cx="-199" cy="-118" r="324.5"/>
</clipPath>
<clipPath id="o2">
<circle cx="-212" cy="-100" r="324.5"/>
</clipPath>
<clipPath id="o1">
<circle cy="-38" r="576"/>
</clipPath>
<clipPath id="o6">
<circle cx="-182" cy="-96" r="324.5"/>
</clipPath>
<clipPath id="o7">
<circle cx="-213" cy="-91" r="324.5"/>
</clipPath>
<clipPath id="o8">
<circle cx="-234" cy="-64" r="324.5"/>
</clipPath>
<g id="s">
<g id="B">
<path id="A" d="M0 0v1h.5z" fill="#FFD100" transform="translate(0-1) rotate(18)"/>
<use xlink:href="#A" transform="scale(-1 1)"/>
</g>
<g id="C">
<use xlink:href="#B" transform="rotate(72)"/>
<use xlink:href="#B" transform="rotate(216)"/>
</g>
<use xlink:href="#C" transform="rotate(72)"/>
</g>
</defs>
<path d="M-1440-960h2880V960h-2880z" fill="#00785E"/>
<g clip-path="url(#b)" fill="#fff">
<circle cx="-209" cy="-7" r="324.5"/>
<circle cx="209" cy="-7" r="324.5"/>
</g>
<circle cx="224" cy="-39" r="324.5" fill="#00785E"/>
<circle cx="-224" cy="-39" r="324.5" fill="#00785E"/>
<g clip-path="url(#o1)" fill="#fff">
<path d="M-500 285.5h291v32h-291zm0 65H500v16H-500zm0 49H500v25H-500zm0 50H500v32H-500zm0 48H500v50H-500zm1000-212H209v32h291z"/>
</g>
<circle cx="158" cy="-149" r="324.5" clip-path="url(#o4)" fill="#fff"/>
<circle cx="199" cy="-118" r="324.5" clip-path="url(#o3)" fill="#00785E"/>
<circle cy="-346" r="130" fill="#00785E"/>
<circle cx="212" cy="-100" r="324.5" clip-path="url(#o2)" fill="#fff"/>
<g id="h">
<circle cx="-379" cy="307" r="381.5" clip-path="url(#o8)" fill="#fff"/>
<circle cx="-370" cy="343" r="381.5" clip-path="url(#o7)" fill="#00785E"/>
<circle cx="-485" cy="21" r="130" fill="#00785E"/>
<g clip-path="url(#o8)" fill="#fff">
<circle cx="-339" cy="372" r="381.5" clip-path="url(#o6)"/>
<path d="M-100 50l60 50h50v100h-60z"/>
</g>
<use xlink:href="#s" transform="rotate(-35 0-38) translate(0-492.5) scale(73)"/>
<use xlink:href="#s" transform="rotate(-65 0-38) translate(0-492.5) scale(73)"/>
</g>
<use xlink:href="#h" transform="scale(-1 1)"/>
<use xlink:href="#s" transform="translate(0-492.5) scale(105.5)"/>
</svg>