<?xml version="1.0" encoding="UTF-8"?>
<svg
   xmlns:ns1="http://www.w3.org/1999/02/22-rdf-syntax-ns#"
   xmlns:xlink="http://www.w3.org/1999/xlink"
   xmlns:sodipodi="http://sodipodi.sourceforge.net/DTD/sodipodi-0.dtd"
   xmlns:inkscape="http://www.inkscape.org/namespaces/inkscape"
   xmlns:rdf="http://www.w3.org/1999/02/22-rdf-syntax-ns#"
   xmlns:dc="http://purl.org/dc/elements/1.1/"
   xmlns:cc="http://creativecommons.org/ns#"
   xmlns="http://www.w3.org/2000/svg"
   viewBox="0 0 90 60"
   fill="none"
   width="900"
   height="600">
  <title>Flag of Namibia (ナミビア)</title>
  <desc>ISO 3166-1: NA | Ratio: 2:3 | De facto (Standard Vexillological Approximations / Album des Pavillons)</desc>
  <metadata>
    <rdf:RDF xmlns:rdf="http://www.w3.org/1999/02/22-rdf-syntax-ns#"
             xmlns:dc="http://purl.org/dc/elements/1.1/">
      <rdf:Description>
        <dc:title>Flag of Namibia (ナミビア)</dc:title>
        <dc:creator>国旗仕様検証プロジェクト (Flag Specification Verification Project)</dc:creator>
        <dc:rights>Colors verified from official government/vexillological sources. SVG geometry from Wikimedia Commons (various authors, mostly public domain).</dc:rights>
        <dc:format>image/svg+xml</dc:format>
        <dc:identifier>NA</dc:identifier>
      </rdf:Description>
    </rdf:RDF>
  </metadata>
	<defs>
		<clipPath id="f">
			<path d="m0 0h90v60H0z"/>
		</clipPath>
	</defs>
	<path fill="#001489" d="m0 60V0h90z"/>
	<path fill="#009a44" d="m90 0v60H0z"/>
	<g clip-path="url(#f)">
		<path stroke="#fff" stroke-width="20" d="m0 60L90 0"/>
		<path stroke="#DA291C" stroke-width="15" d="m0 60L90 0"/>
	</g>
	<path transform="scale(.001)" fill="#FFC72C" d="m18000 6341 1553 4205 3447-2865-757 4418 4417-758-2864 3448 4204 1552-4204 1553 2864 3447-4417-757 757 4418-3447-2865-1553 4204-1553-4204-3447 2865 757-4418-4417 757 2864-3447-4204-1553 4204-1552-2864-3448 4417 758-757-4418 3447 2865z"/>
	<circle stroke="#001489" r="5.5" cx="18" cy="16.341"/>
</svg>