<?xml version="1.0" encoding="UTF-8"?>
<svg
   xmlns:ns1="http://www.w3.org/1999/02/22-rdf-syntax-ns#"
   xmlns:xlink="http://www.w3.org/1999/xlink"
   xmlns:sodipodi="http://sodipodi.sourceforge.net/DTD/sodipodi-0.dtd"
   xmlns:inkscape="http://www.inkscape.org/namespaces/inkscape"
   xmlns:rdf="http://www.w3.org/1999/02/22-rdf-syntax-ns#"
   xmlns:dc="http://purl.org/dc/elements/1.1/"
   xmlns:cc="http://creativecommons.org/ns#"
   xmlns="http://www.w3.org/2000/svg"
   viewBox="0 0 288 144"
   fill="#fff"
   width="900"
   height="450">
  <title>Flag of Samoa (サモア)</title>
  <desc>ISO 3166-1: WS | Ratio: 1:2 | De facto (Official Flag and National Anthem of Samoa Act 1994 — design only)</desc>
  <metadata>
    <rdf:RDF xmlns:rdf="http://www.w3.org/1999/02/22-rdf-syntax-ns#"
             xmlns:dc="http://purl.org/dc/elements/1.1/">
      <rdf:Description>
        <dc:title>Flag of Samoa (サモア)</dc:title>
        <dc:creator>国旗仕様検証プロジェクト (Flag Specification Verification Project)</dc:creator>
        <dc:rights>Colors verified from official government/vexillological sources. SVG geometry from Wikimedia Commons (various authors, mostly public domain).</dc:rights>
        <dc:format>image/svg+xml</dc:format>
        <dc:identifier>WS</dc:identifier>
      </rdf:Description>
    </rdf:RDF>
  </metadata>
	<defs>
		<path id="a" d="m0-.951057L.309017 0-.5-.587785h1L-.309017 0z"/>
		<path id="b" d="m0 0 .309017.951057L-.5.363271h1l-.809017.587786z"/>
	</defs>
	<path fill="#ce1126" d="m0 0h288v144H0z"/>
	<path fill="#002b7f" d="m0 0h144v72H0z"/>
	<use xlink:href="#a" transform="matrix(20,0,0,20,72,69)"/>
	<use xlink:href="#b" transform="matrix(16,0,0,16,50,21)"/>
	<use xlink:href="#b" transform="matrix(16,0,0,16,72,3)"/>
	<use xlink:href="#b" transform="matrix(15,0,0,15,94.5,18)"/>
	<use xlink:href="#a" transform="matrix(10,0,0,10,83,46)"/>
</svg>